<svg width="20" height="17" viewBox="0 0 20 17" fill="none" xmlns="http://www.w3.org/2000/svg">
<path d="M12.7235 0.48913C13.3806 0.75793 14.1422 1.08646 14.411 1.2358C14.9336 1.5046 15.3368 1.38513 15.3368 0.93713C15.3368 0.683263 15.755 0.444331 16.0835 0.533931C16.3523 0.608598 16.6808 1.16113 16.6808 1.53446C16.6808 1.65393 17.1139 2.11686 17.6515 2.59473C18.4579 3.2966 18.6222 3.5206 18.6222 3.89393C18.6222 4.20753 18.8163 4.62566 19.2195 5.14833C19.548 5.5814 19.8168 6.0742 19.8168 6.22353C19.8168 6.3878 19.5331 6.71633 19.1299 7.00006C18.4878 7.463 18.3982 7.47793 17.547 7.38833C16.7854 7.31366 16.5614 7.34353 16.1432 7.61233C15.8147 7.80646 15.4563 7.89606 15.1278 7.8662C14.6798 7.8214 14.4856 7.9558 13.2014 9.13553C11.8574 10.375 11.7379 10.5243 11.4542 11.4353C11.2899 11.9729 11.1555 12.8091 11.1555 13.3169L11.1555 14.2278L11.9768 14.9894C13.3507 16.2587 13.052 16.7067 10.7822 16.8113C9.31869 16.871 8.91549 16.7515 8.45256 16.1094C8.15389 15.7062 7.63123 13.3617 7.48189 11.7787C7.42216 11.2113 7.33256 10.6886 7.27283 10.599C7.10856 10.3153 6.37683 10.6737 6.37683 11.0321C6.37683 11.5697 5.61522 13.2273 5.09256 13.8395C4.80882 14.1681 4.58483 14.4966 4.58483 14.5713C4.58483 14.631 4.88349 14.8849 5.25683 15.1089C5.95869 15.5569 6.25736 16.1393 5.94376 16.4529C5.82429 16.5723 5.16722 16.6321 4.01736 16.6321C2.49416 16.6171 2.18056 16.5723 1.55336 16.2737C0.463224 15.7361 0.298957 15.303 0.537891 13.4662C0.776824 11.6891 0.702159 10.6139 0.254159 8.9414C-0.373041 6.58193 0.179493 4.07313 1.70269 2.37073C3.03176 0.892329 3.88296 0.668329 7.12349 0.937129L8.54216 1.0566L9.42323 0.518996C10.5283 -0.167938 11.1256 -0.167937 12.7235 0.48913ZM13.4254 2.8486C13.2611 3.19206 13.2611 3.3414 13.4254 3.66993C13.724 4.2822 13.9331 4.2374 13.8734 3.58033C13.8136 2.99793 13.8286 2.983 14.3512 2.8934C15.2024 2.72913 14.9784 2.3558 14.0675 2.41553C13.739 2.43046 13.5747 2.54993 13.4254 2.8486ZM17.0094 5.01393C16.9198 5.29766 17.4275 5.447 17.5918 5.19313C17.6664 5.07366 17.7262 4.92433 17.7262 4.8646C17.7262 4.67046 17.084 4.8198 17.0094 5.01393Z" fill="black"/>
<path d="M14.1882 9.1956C14.233 9.27027 14.3077 9.554 14.3674 9.83773C14.4421 10.1812 14.7557 10.6143 15.3231 11.1519C16.5775 12.3615 16.6821 12.5705 16.6821 13.8996C16.6821 15.2137 16.5029 15.5124 15.7114 15.5124C14.9946 15.5124 14.2181 14.7956 13.8895 13.8399C13.6805 13.2724 13.4714 12.9887 12.9935 12.6601C11.7989 11.8239 11.7242 11.5849 12.3813 10.7337C12.8293 10.1663 14.1135 9.07613 14.1882 9.1956Z" fill="black"/>
</svg>
