<svg width="128" height="128" viewBox="0 0 128 128" fill="none" xmlns="http://www.w3.org/2000/svg">
<style>
.mark{fill:#000}
@media (prefers-color-scheme:dark){.mark{fill:#fff}}
</style>
<path class="mark" d="M71.7011 98.3264C59.5851 99.1064 48.6391 96.1424 38.8631 89.4344C35.6911 87.2504 33.3771 84.1824 31.9211 80.2304C31.2971 78.5664 31.2971 77.2144 31.9211 76.1744C32.5451 75.0824 33.7411 74.3804 35.5091 74.0684C39.8771 73.3924 43.3351 74.7444 45.8831 78.1244C50.3031 84.0004 56.8811 85.3784 65.6171 82.2584C67.6451 81.4784 68.7371 80.4384 68.8931 79.1384C68.9451 78.7744 68.9191 78.4624 68.8151 78.2024C68.7631 77.8904 68.6331 77.6044 68.4251 77.3444C68.2171 77.0844 68.0091 76.8764 67.8011 76.7204C67.6451 76.5644 67.3851 76.3564 67.0211 76.0964C66.6571 75.7844 66.4231 75.5764 66.3191 75.4724C66.0591 75.3164 65.7991 75.1604 65.5391 75.0044C65.3311 74.8484 65.0971 74.7184 64.8371 74.6144C64.5771 74.4584 64.3431 74.3284 64.1351 74.2244C63.9271 74.1204 63.6411 74.0164 63.2771 73.9124C62.9651 73.8084 62.7311 73.7304 62.5751 73.6784C62.4191 73.5744 62.1331 73.4964 61.7171 73.4444C61.3531 73.3404 61.0931 73.2884 60.9371 73.2884C60.8331 73.2364 60.5731 73.1584 60.1571 73.0544C59.7411 72.9504 59.4811 72.8984 59.3771 72.8984C51.9931 71.2864 45.6231 68.3224 40.2671 64.0064C35.0151 59.7424 32.3371 54.9324 32.2331 49.5764C32.0251 41.6204 34.9891 36.0044 41.1251 32.7284C44.7131 30.7524 48.7431 29.5564 53.2151 29.1404C57.7391 28.7244 62.1851 29.1404 66.5531 30.3884C70.9731 31.5844 74.6911 33.5604 77.7071 36.3164C79.8911 38.2924 81.5031 40.7884 82.5431 43.8044C83.5831 46.7684 82.5431 48.5884 79.4231 49.2644C77.4471 49.7324 75.3411 49.6024 73.1051 48.8744C71.0771 48.1984 68.2171 46.7944 64.5251 44.6624C60.3651 42.2704 56.1011 41.9844 51.7331 43.8044C51.0571 44.1164 50.5371 44.3504 50.1731 44.5064C49.8611 44.6624 49.5231 44.9744 49.1591 45.4424C48.7951 45.9104 48.6131 46.4304 48.6131 47.0024C48.6131 47.6784 48.8211 48.2504 49.2371 48.7184C49.6531 49.1864 50.0431 49.4984 50.4071 49.6544C50.8231 49.8104 51.4211 50.0184 52.2011 50.2784C52.9811 50.5384 53.8651 50.7464 54.8531 50.9024C56.3091 51.1624 58.6231 51.6044 61.7951 52.2284C65.0191 52.8524 67.8531 53.3464 70.2971 53.7104C72.7931 54.0744 75.1591 54.3344 77.3951 54.4904C79.6831 54.6984 81.9711 55.5044 84.2591 56.9084C86.5991 58.3124 88.6271 60.0804 90.3431 62.2124C92.0591 64.3444 93.5151 66.7104 94.7111 69.3104C95.9591 71.8584 96.6611 74.3804 96.8171 76.8764C96.9731 79.3724 96.6611 81.7124 95.8811 83.8964C95.5691 84.6764 95.1011 86.0024 94.4771 87.8744C92.5011 94.2184 88.0551 97.7024 81.1391 98.3264C80.0991 98.3784 78.9811 98.4044 77.7851 98.4044C76.6411 98.4564 75.4451 98.4564 74.1971 98.4044C72.9491 98.3524 72.1171 98.3264 71.7011 98.3264Z"/>
</svg>
