<svg preserveAspectRatio="none" width="100%" height="100%" overflow="visible" style="display: block;" viewBox="0 0 26.6719 24" fill="none" xmlns="http://www.w3.org/2000/svg">
<g id="Group">
<path id="react_light-Path" d="M13.3828 9.42188C11.9719 9.42188 10.8281 10.5656 10.8281 11.9766C10.8281 13.3875 11.9719 14.5312 13.3828 14.5312C14.7937 14.5312 15.9375 13.3875 15.9375 11.9766C15.9375 10.5656 14.7937 9.42188 13.3828 9.42188Z" fill="var(--fill-0, #087EA4)"/>
<path id="react_light-Shape" d="M26.67 11.9997C26.67 9.99411 24.8127 8.23507 21.8555 7.07743C21.8951 6.81673 21.9308 6.55885 21.9562 6.30567C22.2479 3.42382 21.5535 1.34384 20.002 0.44785C18.2661 -0.554493 15.8142 0.17303 13.335 2.15701C10.8558 0.17303 8.40388 -0.554493 6.66797 0.44785C5.11647 1.34384 4.4221 3.42382 4.71377 6.30567C4.73918 6.55885 4.77399 6.81767 4.81445 7.07931C4.56794 7.17343 4.32614 7.27319 4.09374 7.37766C1.45365 8.56448 0 10.2078 0 11.9997C0 14.0054 1.85728 15.7644 4.81445 16.922C4.77399 17.1827 4.73918 17.4406 4.71377 17.6938C4.4221 20.5757 5.11647 22.6556 6.66797 23.5516C7.20139 23.8541 7.80583 24.0088 8.41893 23.9996C9.88858 23.9996 11.6047 23.226 13.335 21.8425C15.0643 23.226 16.7814 23.9996 18.2529 23.9996C18.866 24.0086 19.4704 23.854 20.0039 23.5516C21.5554 22.6556 22.2498 20.5757 21.9581 17.6938C21.9327 17.4406 21.8969 17.1827 21.8574 16.922C24.8146 15.7663 26.6719 14.0044 26.6719 11.9997M18.2417 1.27043C18.6359 1.26092 19.0255 1.35641 19.3707 1.54713C20.448 2.16925 20.9316 3.85676 20.6964 6.17673C20.6804 6.33485 20.6616 6.49485 20.639 6.65579C19.4094 6.28538 18.1503 6.02119 16.8755 5.86615C16.1027 4.83863 15.2434 3.87921 14.3069 2.99841C15.7775 1.86148 17.1578 1.27043 18.2407 1.27043M17.7355 14.5409C17.2596 15.3671 16.7414 16.1681 16.183 16.9409C15.2365 17.0381 14.2856 17.0865 13.3341 17.0858C12.3829 17.0865 11.4323 17.0381 10.486 16.9409C9.92911 16.1681 9.4125 15.367 8.9383 14.5409C8.46246 13.717 8.03001 12.8688 7.64271 11.9997C8.03001 11.1307 8.46246 10.2825 8.9383 9.45858C9.41176 8.63575 9.92677 7.83755 10.4813 7.06708C11.4293 6.96741 12.3818 6.91777 13.335 6.91837C14.2862 6.9178 15.2368 6.96618 16.183 7.06331C16.7395 7.83497 17.2564 8.63443 17.7317 9.45858C18.2072 10.2827 18.6396 11.1309 19.0273 11.9997C18.6396 12.8686 18.2072 13.7168 17.7317 14.5409M19.6746 13.5997C19.9732 14.4142 20.2184 15.2474 20.4085 16.0938C19.5834 16.3511 18.7423 16.5539 17.8907 16.7009C18.2144 16.2127 18.528 15.7048 18.8316 15.1771C19.1317 14.6557 19.413 14.1296 19.6784 13.6035M11.5483 18.299C12.1335 18.3347 12.731 18.3554 13.3359 18.3554C13.9409 18.3554 14.5421 18.3347 15.1283 18.299C14.5725 18.9648 13.9738 19.5936 13.3359 20.1813C12.6995 19.5937 12.1023 18.9649 11.5483 18.299ZM8.78023 16.699C7.92831 16.5527 7.08692 16.3505 6.26151 16.0938C6.45087 15.2487 6.69507 14.4168 6.99257 13.6035C7.25413 14.1296 7.53451 14.6557 7.83936 15.1771C8.1442 15.6985 8.45939 16.2124 8.78023 16.7009M6.99257 10.395C6.69614 9.58472 6.45257 8.756 6.26339 7.91413C7.08676 7.65714 7.92589 7.45374 8.77552 7.30519C8.45375 7.79178 8.13855 8.29624 7.83465 8.82236C7.53075 9.34847 7.25319 9.86799 6.98787 10.395M15.1227 5.69956C14.5374 5.6638 13.94 5.64309 13.3303 5.64309C12.7256 5.64309 12.1297 5.66192 11.5426 5.69956C12.0966 5.0336 12.6938 4.4048 13.3303 3.81723C13.9684 4.40465 14.5671 5.03345 15.1227 5.69956ZM18.8297 8.82236C18.5249 8.29405 18.2097 7.78582 17.8841 7.29766C18.738 7.44464 19.5813 7.64775 20.4085 7.90566C20.2187 8.75066 19.9745 9.5825 19.6774 10.396C19.4159 9.86988 19.1345 9.34376 18.8306 8.8233M5.97737 6.17768C5.73933 3.85864 6.22576 2.17019 7.30212 1.54807C7.64741 1.35765 8.03698 1.26218 8.43116 1.27137C9.51411 1.27137 10.8944 1.86242 12.365 2.99935C11.4279 3.88078 10.5679 4.84082 9.79449 5.86897C8.52008 6.02475 7.2611 6.28796 6.031 6.65579C6.00936 6.49485 5.9896 6.33579 5.97455 6.17768M4.61498 8.53624C4.75988 8.4735 4.9076 8.41075 5.05813 8.34801C5.35409 9.59698 5.7554 10.8186 6.25775 11.9997C5.75445 13.1832 5.35281 14.4074 5.05719 15.659C2.65985 14.6755 1.27018 13.3127 1.27018 11.9997C1.27018 10.7555 2.49331 9.49341 4.61498 8.53624ZM7.30212 22.4514C6.22576 21.8293 5.73933 20.1408 5.97737 17.8218C5.99242 17.6637 6.01218 17.5046 6.03382 17.3427C7.26345 17.7131 8.52256 17.9772 9.79731 18.1324C10.5703 19.1603 11.4296 20.1203 12.3659 21.002C10.3157 22.586 8.44246 23.1083 7.30494 22.4514M20.6954 17.8218C20.9307 20.1418 20.4471 21.8293 19.3698 22.4514C18.2332 23.1102 16.359 22.586 14.3097 21.002C15.2457 20.1203 16.1047 19.1603 16.8774 18.1324C18.1522 17.9773 19.4113 17.7132 20.6409 17.3427C20.6635 17.5046 20.6823 17.6637 20.6983 17.8218M21.6184 15.6571C21.322 14.4062 20.9201 13.1827 20.4169 11.9997C20.9198 10.8161 21.3215 9.59199 21.6175 8.34048C24.0101 9.324 25.4036 10.6868 25.4036 11.9997C25.4036 13.3127 24.0139 14.6755 21.6166 15.659" fill="var(--fill-0, #087EA4)"/>
</g>
</svg>
