<svg preserveAspectRatio="none" width="100%" height="100%" overflow="visible" style="display: block;" viewBox="0 0 19.9481 24" fill="none" xmlns="http://www.w3.org/2000/svg">
<g id="Svelte" clip-path="url(#clip0_0_11)">
<path id="Vector" d="M18.6771 3.17198C16.4509 -0.014174 12.0543 -0.958512 8.87551 1.06676L3.29255 4.62515C2.53835 5.09963 1.89145 5.72625 1.3932 6.46496C0.894943 7.20366 0.556299 8.0382 0.398914 8.91523C0.132579 10.3926 0.366646 11.9165 1.06406 13.2458C0.586165 13.9708 0.260222 14.7851 0.105927 15.6395C-0.053109 16.5342 -0.0318909 17.4517 0.168338 18.338C0.368566 19.2244 0.743773 20.0619 1.27195 20.8014C3.4985 23.9879 7.8951 24.9318 11.0735 22.9065L16.6565 19.3483C17.4108 18.8739 18.0577 18.2472 18.556 17.5085C19.0542 16.7698 19.3928 15.9352 19.5501 15.0581C19.8164 13.5808 19.5825 12.0569 18.8855 10.7275C19.3632 10.0025 19.689 9.18826 19.8431 8.33385C20.0023 7.43916 19.9811 6.5217 19.7809 5.63529C19.5807 4.74889 19.2054 3.9114 18.6771 3.17198Z" fill="var(--fill-0, #FF3E00)"/>
<path id="Vector_2" d="M8.32954 21.1046C6.52939 21.5727 4.62848 20.868 3.56827 19.3398C3.25048 18.895 3.02473 18.3912 2.90427 17.858C2.7838 17.3248 2.77104 16.7729 2.86674 16.2346C2.89915 16.0579 2.94375 15.8837 3.00022 15.7131L3.10541 15.3925L3.39147 15.6026C4.05225 16.0881 4.79107 16.4572 5.57609 16.6941L5.7836 16.757L5.76451 16.9642C5.73913 17.2589 5.81891 17.5531 5.9897 17.7946C6.14546 18.0193 6.36645 18.1908 6.62281 18.286C6.87917 18.3811 7.15856 18.3953 7.42323 18.3266C7.54463 18.2942 7.66033 18.2433 7.76632 18.1758L13.351 14.617C13.4877 14.5309 13.6049 14.4174 13.6952 14.2835C13.7856 14.1497 13.847 13.9985 13.8757 13.8395C13.9044 13.6773 13.9005 13.511 13.8642 13.3503C13.8279 13.1896 13.7599 13.0378 13.6643 12.9036C13.5085 12.6788 13.2874 12.5073 13.031 12.4121C12.7745 12.3169 12.495 12.3026 12.2302 12.3713C12.109 12.4037 11.9935 12.4545 11.8877 12.5219L9.75653 13.8804C9.40611 14.1032 9.0237 14.2711 8.62253 14.3784C6.82245 14.8465 4.92147 14.1418 3.86141 12.6135C3.54361 12.1687 3.31784 11.665 3.19736 11.1317C3.07688 10.5985 3.06411 10.0466 3.1598 9.5084C3.25446 8.98086 3.45818 8.47888 3.75793 8.03457C4.05768 7.59025 4.44686 7.21339 4.90058 6.92809L10.4848 3.36885C10.8354 3.14569 11.2181 2.97756 11.6196 2.8703C13.4196 2.40222 15.3206 3.10687 16.3807 4.63508C16.6985 5.07988 16.9243 5.58367 17.0447 6.1169C17.1652 6.65013 17.178 7.20205 17.0823 7.74027C17.0497 7.91693 17.0051 8.09116 16.9488 8.26173L16.8436 8.58246L16.5576 8.37261C15.8969 7.88684 15.1581 7.51755 14.3729 7.28069L14.1654 7.21765L14.1845 7.01053C14.2097 6.71586 14.1299 6.42178 13.9593 6.1802C13.8036 5.95543 13.5826 5.78389 13.3262 5.68874C13.0698 5.5936 12.7904 5.57942 12.5257 5.64814C12.4044 5.68059 12.2887 5.73144 12.1827 5.79892L6.59804 9.35794C6.46138 9.44391 6.34416 9.55744 6.25386 9.69127C6.16357 9.82511 6.10218 9.97631 6.07362 10.1352C6.04481 10.2974 6.04863 10.4638 6.08488 10.6245C6.12113 10.7852 6.18906 10.9371 6.28471 11.0712C6.44057 11.296 6.66164 11.4676 6.91808 11.5628C7.17453 11.658 7.454 11.6722 7.71879 11.6036C7.84014 11.5711 7.9558 11.5202 8.0618 11.4528L10.1926 10.0948C10.5429 9.87172 10.9253 9.70361 11.3265 9.59638C13.1266 9.12838 15.0276 9.83303 16.0877 11.3613C16.4055 11.8061 16.6312 12.3099 16.7517 12.8431C16.8722 13.3763 16.8849 13.9282 16.7892 14.4664C16.6945 14.9939 16.4908 15.496 16.191 15.9403C15.8913 16.3847 15.5021 16.7617 15.0485 17.0471L9.46424 20.6061C9.11366 20.8292 8.73104 20.9974 8.32954 21.1046Z" fill="var(--fill-0, white)"/>
</g>
<defs>
<clipPath id="clip0_0_11">
<rect width="19.9481" height="24" fill="white"/>
</clipPath>
</defs>
</svg>
