<svg preserveAspectRatio="none" width="100%" height="100%" overflow="visible" style="display: block;" viewBox="0 0 19.8168 16.8249" fill="none" xmlns="http://www.w3.org/2000/svg">
<g id="Bear">
<path id="Body" d="M7.09333 16.3358C6.43627 16.067 5.67467 15.7384 5.40587 15.5891C4.8832 15.3203 4.48 15.4398 4.48 15.8878C4.48 16.1416 4.06187 16.3806 3.73333 16.291C3.46453 16.2163 3.136 15.6638 3.136 15.2904C3.136 15.171 2.70293 14.708 2.16533 14.2302C1.35893 13.5283 1.19467 13.3043 1.19467 12.931C1.19467 12.6174 1.00053 12.1992 0.597333 11.6766C0.2688 11.2435 0 10.7507 0 10.6014C0 10.4371 0.283733 10.1086 0.686933 9.82483C1.32907 9.3619 1.41867 9.34697 2.26987 9.43657C3.03147 9.51123 3.25547 9.48137 3.6736 9.21257C4.00213 9.01843 4.36053 8.92884 4.68907 8.9587C5.13707 9.0035 5.3312 8.8691 6.61547 7.68937C7.95947 6.4499 8.07893 6.30057 8.36267 5.38963C8.52693 4.85203 8.66133 4.01577 8.66133 3.50803V2.5971L7.84 1.8355C6.46613 0.566168 6.7648 0.118168 9.03467 0.0136348C10.4981 -0.0460985 10.9013 0.0733682 11.3643 0.715502C11.6629 1.1187 12.1856 3.46324 12.3349 5.04617C12.3947 5.61364 12.4843 6.1363 12.544 6.2259C12.7083 6.50963 13.44 6.15124 13.44 5.79284C13.44 5.25524 14.2016 3.59763 14.7243 2.98537C15.008 2.65683 15.232 2.3283 15.232 2.25363C15.232 2.1939 14.9333 1.94003 14.56 1.71603C13.8581 1.26803 13.5595 0.685635 13.8731 0.372035C13.9925 0.252568 14.6496 0.192835 15.7995 0.192835C17.3227 0.207768 17.6363 0.252568 18.2635 0.551235C19.3536 1.08883 19.5179 1.5219 19.2789 3.3587C19.04 5.13577 19.1147 6.21097 19.5627 7.8835C20.1899 10.243 19.6373 12.7518 18.1141 14.4542C16.7851 15.9326 15.9339 16.1566 12.6933 15.8878L11.2747 15.7683L10.3936 16.3059C9.28853 16.9928 8.6912 16.9928 7.09333 16.3358ZM6.39147 13.9763C6.55573 13.6328 6.55573 13.4835 6.39147 13.155C6.0928 12.5427 5.88373 12.5875 5.94347 13.2446C6.0032 13.827 5.98827 13.8419 5.4656 13.9315C4.6144 14.0958 4.8384 14.4691 5.74933 14.4094C6.07787 14.3944 6.24213 14.275 6.39147 13.9763ZM2.80747 11.811C2.89707 11.5272 2.38933 11.3779 2.22507 11.6318C2.1504 11.7512 2.09067 11.9006 2.09067 11.9603C2.09067 12.1544 2.7328 12.0051 2.80747 11.811Z" fill="var(--fill-0, black)"/>
<path id="Leg" d="M5.62951 7.6293C5.58471 7.55463 5.51004 7.2709 5.45031 6.98717C5.37564 6.6437 5.06204 6.21063 4.49458 5.67303C3.24018 4.46343 3.13564 4.25437 3.13564 2.9253C3.13564 1.61117 3.31484 1.3125 4.10631 1.3125C4.82311 1.3125 5.59964 2.0293 5.92818 2.98503C6.13724 3.5525 6.34631 3.83623 6.82418 4.16477C8.01884 5.00103 8.09351 5.23997 7.43644 6.09117C6.98844 6.65863 5.70418 7.74877 5.62951 7.6293Z" fill="var(--fill-0, black)"/>
</g>
</svg>
