<svg preserveAspectRatio="none" width="100%" height="100%" overflow="visible" style="display: block;" viewBox="0 0 122.414 23.195" fill="none" xmlns="http://www.w3.org/2000/svg">
<g id="Logo">
<g id="SimplePlayer">
<path d="M7.74 13.335C5.41 13.485 3.305 12.915 1.425 11.625C0.815 11.205 0.37 10.615 0.09 9.855C-0.03 9.535 -0.03 9.275 0.09 9.075C0.21 8.865 0.44 8.73 0.78 8.67C1.62 8.54 2.285 8.8 2.775 9.45C3.625 10.58 4.89 10.845 6.57 10.245C6.96 10.095 7.17 9.895 7.2 9.645C7.21 9.575 7.205 9.515 7.185 9.465C7.175 9.405 7.15 9.35 7.11 9.3C7.07 9.25 7.03 9.21 6.99 9.18C6.96 9.15 6.91 9.11 6.84 9.06C6.77 9 6.725 8.96 6.705 8.94C6.655 8.91 6.605 8.88 6.555 8.85C6.515 8.82 6.47 8.795 6.42 8.775C6.37 8.745 6.325 8.72 6.285 8.7C6.245 8.68 6.19 8.66 6.12 8.64C6.06 8.62 6.015 8.605 5.985 8.595C5.955 8.575 5.9 8.56 5.82 8.55C5.75 8.53 5.7 8.52 5.67 8.52C5.65 8.51 5.6 8.495 5.52 8.475C5.44 8.455 5.39 8.445 5.37 8.445C3.95 8.135 2.725 7.565 1.695 6.735C0.685 5.915 0.17 4.99 0.15 3.96C0.11 2.43 0.68 1.35 1.86 0.72C2.55 0.34 3.325 0.11 4.185 0.0300001C5.055 -0.05 5.91 0.0299998 6.75 0.27C7.6 0.5 8.315 0.88 8.895 1.41C9.315 1.79 9.625 2.27 9.825 2.85C10.025 3.42 9.825 3.77 9.225 3.9C8.845 3.99 8.44 3.965 8.01 3.825C7.62 3.695 7.07 3.425 6.36 3.015C5.56 2.555 4.74 2.5 3.9 2.85C3.77 2.91 3.67 2.955 3.6 2.985C3.54 3.015 3.475 3.075 3.405 3.165C3.335 3.255 3.3 3.355 3.3 3.465C3.3 3.595 3.34 3.705 3.42 3.795C3.5 3.885 3.575 3.945 3.645 3.975C3.725 4.005 3.84 4.045 3.99 4.095C4.14 4.145 4.31 4.185 4.5 4.215C4.78 4.265 5.225 4.35 5.835 4.47C6.455 4.59 7 4.685 7.47 4.755C7.95 4.825 8.405 4.875 8.835 4.905C9.275 4.945 9.715 5.1 10.155 5.37C10.605 5.64 10.995 5.98 11.325 6.39C11.655 6.8 11.935 7.255 12.165 7.755C12.405 8.245 12.54 8.73 12.57 9.21C12.6 9.69 12.54 10.14 12.39 10.56C12.33 10.71 12.24 10.965 12.12 11.325C11.74 12.545 10.885 13.215 9.555 13.335C9.355 13.345 9.14 13.35 8.91 13.35C8.69 13.36 8.46 13.36 8.22 13.35C7.98 13.34 7.82 13.335 7.74 13.335Z" fill="var(--fill-0, black)"/>
<path d="M18.6091 9.975C18.7291 10.755 18.5741 11.395 18.1441 11.895C17.7141 12.395 17.1041 12.645 16.3141 12.645C16.2441 12.645 16.1191 12.65 15.9391 12.66C15.7691 12.66 15.6341 12.66 15.5341 12.66C15.4341 12.65 15.3091 12.64 15.1591 12.63C15.0191 12.62 14.8841 12.605 14.7541 12.585C14.6341 12.555 14.5191 12.515 14.4091 12.465C14.2491 12.405 14.1241 12.355 14.0341 12.315C13.9541 12.265 13.8691 12.19 13.7791 12.09C13.6991 11.98 13.6541 11.86 13.6441 11.73C13.6341 11.32 13.5441 10.595 13.3741 9.555C13.2141 8.515 13.1441 7.695 13.1641 7.095C13.1641 6.895 13.1741 6.675 13.1941 6.435C13.2141 6.185 13.2441 5.915 13.2841 5.625C13.3341 5.325 13.3691 5.09 13.3891 4.92C13.4291 4.5 13.6291 4.275 13.9891 4.245C14.1491 4.225 14.4891 4.19 15.0091 4.14C15.5391 4.08 15.9441 4.04 16.2241 4.02C16.7641 3.97 17.1291 4.21 17.3191 4.74C17.3391 4.79 17.3941 4.945 17.4841 5.205C17.5841 5.455 17.6491 5.625 17.6791 5.715C17.7191 5.795 17.7741 5.945 17.8441 6.165C17.9141 6.375 17.9641 6.545 17.9941 6.675C18.0341 6.805 18.0691 6.96 18.0991 7.14C18.1391 7.32 18.1691 7.495 18.1891 7.665C18.2191 7.955 18.2891 8.365 18.3991 8.895C18.5091 9.415 18.5791 9.775 18.6091 9.975ZM15.2641 3.48C14.5741 3.47 14.0841 3.285 13.7941 2.925C13.5341 2.595 13.4791 2.24 13.6291 1.86C13.7591 1.54 14.0041 1.28 14.3641 1.08C14.7241 0.87 15.0891 0.765 15.4591 0.765C15.8391 0.765 16.1841 0.865 16.4941 1.065C16.7441 1.255 16.8791 1.53 16.8991 1.89C16.9191 2.24 16.8191 2.545 16.5991 2.805C16.1991 3.285 15.7541 3.51 15.2641 3.48Z" fill="var(--fill-0, black)"/>
<path d="M34.2611 7.845C34.2711 8.215 34.2711 8.46 34.2611 8.58C34.2611 8.7 34.2261 8.95 34.1561 9.33C34.0961 9.71 34.0611 9.96 34.0511 10.08C34.0411 10.17 34.0061 10.345 33.9461 10.605C33.8861 10.855 33.8561 11.05 33.8561 11.19C33.8461 11.61 33.7261 11.93 33.4961 12.15C33.2761 12.37 32.9561 12.52 32.5361 12.6C32.2261 12.66 32.0611 12.695 32.0411 12.705C30.8911 13.175 30.0661 12.665 29.5661 11.175C29.4761 10.905 29.4311 10.5 29.4311 9.96C29.4311 9.91 29.4311 9.495 29.4311 8.715C29.4311 8.595 29.4211 8.4 29.4011 8.13C29.3911 7.86 29.3811 7.645 29.3711 7.485C29.3711 7.325 29.3861 7.13 29.4161 6.9C29.4461 6.67 29.4961 6.465 29.5661 6.285C29.6561 6.025 29.6061 5.845 29.4161 5.745C29.1961 5.625 28.9761 5.66 28.7561 5.85C28.3461 6.22 28.1911 6.72 28.2911 7.35C28.5411 8.9 28.6661 10.19 28.6661 11.22C28.6761 11.81 28.6211 12.195 28.5011 12.375C28.3811 12.555 28.0511 12.745 27.5111 12.945C27.1611 13.065 26.7211 13.105 26.1911 13.065C25.7311 13.025 25.4111 12.775 25.2311 12.315C24.8911 11.425 24.7211 10.625 24.7211 9.915C24.7211 9.735 24.7161 9.475 24.7061 9.135C24.7061 8.795 24.7061 8.52 24.7061 8.31C24.7061 8.1 24.7161 7.85 24.7361 7.56C24.7661 7.26 24.8111 6.99 24.8711 6.75C24.8911 6.66 24.9011 6.555 24.9011 6.435C24.8811 5.955 24.6511 5.72 24.2111 5.73C23.7411 5.74 23.5411 5.985 23.6111 6.465C23.6711 7.025 23.6961 7.46 23.6861 7.77C23.6861 8.07 23.6711 8.5 23.6411 9.06C23.6111 9.62 23.6011 10.055 23.6111 10.365C23.6111 10.515 23.6011 10.67 23.5811 10.83C23.5611 10.98 23.5311 11.18 23.4911 11.43C23.4511 11.67 23.4261 11.82 23.4161 11.88C23.3261 12.49 22.9411 12.875 22.2611 13.035C21.7311 13.155 21.2561 13.155 20.8361 13.035C20.2061 12.875 19.8161 12.5 19.6661 11.91C19.2761 10.43 19.2861 9.01 19.6961 7.65C19.9861 6.71 20.1511 5.91 20.1911 5.25C20.2111 4.75 20.3461 4.38 20.5961 4.14C20.8561 3.9 21.2161 3.825 21.6761 3.915C22.6961 4.105 23.8711 4.02 25.2011 3.66C25.7611 3.51 26.3611 3.595 27.0011 3.915C27.8211 4.325 28.6361 4.3 29.4461 3.84C29.7361 3.67 30.0711 3.555 30.4511 3.495C30.8411 3.425 31.1461 3.395 31.3661 3.405C31.5961 3.405 31.9561 3.42 32.4461 3.45C32.8961 3.47 33.1761 3.68 33.2861 4.08C33.3461 4.3 33.4611 4.685 33.6311 5.235C33.8111 5.785 33.9511 6.26 34.0511 6.66C34.1511 7.06 34.2211 7.455 34.2611 7.845Z" fill="var(--fill-0, black)"/>
<path d="M48.0966 5.52C48.6766 6.07 49.0616 6.705 49.2516 7.425C49.4516 8.145 49.5266 8.955 49.4766 9.855C49.4366 10.405 49.0466 10.85 48.3066 11.19C45.7766 12.34 43.5016 13.01 41.4816 13.2C40.5916 13.28 39.7966 13.145 39.0966 12.795C38.9066 12.705 38.7466 12.645 38.6166 12.615C38.3166 12.545 38.0966 12.565 37.9566 12.675C37.8266 12.775 37.7666 12.97 37.7766 13.26C37.7866 13.27 37.8316 13.54 37.9116 14.07C37.9116 14.09 37.9166 14.125 37.9266 14.175C37.9366 14.225 37.9416 14.26 37.9416 14.28C37.9516 14.3 37.9566 14.33 37.9566 14.37C37.9566 14.42 37.9516 14.455 37.9416 14.475C37.9416 14.505 37.9316 14.535 37.9116 14.565C37.9016 14.605 37.8866 14.64 37.8666 14.67C37.7366 14.84 37.5716 14.955 37.3716 15.015C37.1716 15.085 37.0016 15.115 36.8616 15.105C36.7216 15.105 36.5266 15.09 36.2766 15.06C36.2266 15.05 36.1866 15.045 36.1566 15.045C35.8866 15.015 35.6866 14.915 35.5566 14.745C35.4266 14.585 35.3616 14.35 35.3616 14.04C35.3616 13.8 35.3566 12.23 35.3466 9.33C35.3466 9.05 35.3516 8.595 35.3616 7.965C35.3716 7.325 35.3716 6.77 35.3616 6.3C35.3616 5.82 35.3516 5.36 35.3316 4.92C35.3116 4.49 35.4066 4.17 35.6166 3.96C35.8266 3.74 36.1566 3.605 36.6066 3.555C36.6166 3.545 36.7016 3.545 36.8616 3.555C37.0316 3.565 37.1166 3.57 37.1166 3.57C37.5266 3.59 37.9866 3.595 38.4966 3.585C39.0066 3.565 39.4616 3.505 39.8616 3.405C40.1116 3.335 40.3816 3.3 40.6716 3.3C40.9716 3.3 41.2266 3.32 41.4366 3.36C41.6466 3.39 41.9166 3.44 42.2466 3.51C42.5866 3.57 42.8416 3.61 43.0116 3.63C43.2516 3.66 43.5966 3.72 44.0466 3.81C44.4966 3.9 44.8216 3.96 45.0216 3.99C46.1816 4.17 47.2066 4.68 48.0966 5.52ZM46.5216 8.565C46.7516 7.775 46.5066 7.145 45.7866 6.675C45.7166 6.635 45.6216 6.57 45.5016 6.48C45.3816 6.38 45.3116 6.325 45.2916 6.315C45.0216 6.115 44.8016 6.045 44.6316 6.105C44.5116 6.145 44.3966 6.175 44.2866 6.195C44.1766 6.205 44.0466 6.205 43.8966 6.195C43.7566 6.175 43.6566 6.165 43.5966 6.165C43.5466 6.155 43.4216 6.125 43.2216 6.075C43.0316 6.025 42.9266 6 42.9066 6C42.3866 5.88 41.5416 5.775 40.3716 5.685C39.3316 5.615 38.6466 5.96 38.3166 6.72C38.0266 7.38 37.9416 8.085 38.0616 8.835C38.1116 9.145 38.2216 9.37 38.3916 9.51C38.5616 9.64 38.8116 9.695 39.1416 9.675C40.4616 9.575 41.9966 9.59 43.7466 9.72C43.8466 9.72 43.9966 9.725 44.1966 9.735C44.3966 9.735 44.5716 9.735 44.7216 9.735C44.8816 9.735 45.0316 9.725 45.1716 9.705C45.6116 9.665 45.9166 9.57 46.0866 9.42C46.2666 9.27 46.4116 8.985 46.5216 8.565Z" fill="var(--fill-0, black)"/>
<path d="M54.6115 10.29C55.1515 11.19 55.2865 11.89 55.0165 12.39C54.7465 12.89 54.0815 13.175 53.0215 13.245C52.4215 13.275 51.7665 13.11 51.0565 12.75C50.5965 12.51 50.3465 12.125 50.3065 11.595C50.3065 11.565 50.3065 11.26 50.3065 10.68C50.3865 9.98 50.4465 8.8 50.4865 7.14C50.5365 5.48 50.6415 4.21 50.8015 3.33C50.8415 3.11 50.8665 2.79 50.8765 2.37C50.8865 1.95 50.8965 1.69 50.9065 1.59C50.9665 0.85 51.4415 0.475 52.3315 0.465C52.7415 0.455 53.0665 0.55 53.3065 0.75C53.5565 0.95 53.6915 1.23 53.7115 1.59C53.7215 1.81 53.7965 2.81 53.9365 4.59C54.0765 6.36 54.1415 7.71 54.1315 8.64C54.1215 9.2 54.2815 9.75 54.6115 10.29Z" fill="var(--fill-0, black)"/>
<path d="M59.3516 9.39C59.1416 9.49 59.0366 9.61 59.0366 9.75C59.0366 9.8 59.0416 9.845 59.0516 9.885C59.0716 9.915 59.0966 9.945 59.1266 9.975C59.1666 9.995 59.1966 10.01 59.2166 10.02C59.2466 10.03 59.2916 10.045 59.3516 10.065C59.4116 10.075 59.4516 10.08 59.4716 10.08C60.0616 10.26 60.7666 10.215 61.5866 9.945C62.4166 9.665 63.1916 9.785 63.9116 10.305C64.1916 10.515 64.3366 10.7 64.3466 10.86C64.3666 11.02 64.2466 11.215 63.9866 11.445C63.2366 12.145 62.2816 12.55 61.1216 12.66C61.0916 12.66 60.8166 12.66 60.2966 12.66C58.2666 12.73 56.8066 11.81 55.9166 9.9C55.0066 7.92 55.2066 6.09 56.5166 4.41C57.0466 3.75 57.7516 3.365 58.6316 3.255C59.3716 3.165 60.0766 3.18 60.7466 3.3C61.4266 3.41 62.0566 3.63 62.6366 3.96C63.2166 4.29 63.7066 4.77 64.1066 5.4C64.5166 6.03 64.7916 6.775 64.9316 7.635C64.9916 8.005 64.9566 8.29 64.8266 8.49C64.6966 8.68 64.4516 8.815 64.0916 8.895C63.7216 8.965 63.2466 8.965 62.6666 8.895C61.8966 8.795 60.9516 8.895 59.8316 9.195C59.7416 9.215 59.5816 9.28 59.3516 9.39ZM59.0216 6.75C59.0016 6.95 59.0466 7.115 59.1566 7.245C59.2666 7.365 59.4216 7.48 59.6216 7.59C59.9216 7.73 60.2566 7.745 60.6266 7.635C60.9966 7.525 61.2566 7.33 61.4066 7.05C61.5566 6.78 61.5016 6.58 61.2416 6.45C60.9316 6.3 60.5116 6.19 59.9816 6.12C59.7716 6.12 59.5616 6.185 59.3516 6.315C59.1516 6.445 59.0416 6.59 59.0216 6.75Z" fill="var(--fill-0, black)"/>
<path d="M65.8057 7.65C65.7957 7.02 65.8357 6.055 65.9257 4.755C66.0157 3.445 66.0407 2.45 66.0007 1.77C65.9707 1.27 66.2057 0.94 66.7057 0.779999C67.0057 0.679999 67.3057 0.63 67.6057 0.63C69.9957 0.62 71.6357 0.63 72.5257 0.66C73.7257 0.69 74.9357 1.18 76.1557 2.13C76.5857 2.47 76.9057 2.98 77.1157 3.66C77.3557 4.42 77.4357 5.235 77.3557 6.105C77.2357 7.335 76.6257 8.165 75.5257 8.595C74.4757 9.005 73.1957 9.145 71.6857 9.015C71.1057 8.955 70.5307 8.965 69.9607 9.045C69.5407 9.095 69.2757 9.19 69.1657 9.33C69.0557 9.46 69.0107 9.735 69.0307 10.155C69.0707 10.705 69.0857 11.115 69.0757 11.385C69.0757 11.795 68.9857 12.105 68.8057 12.315C68.6357 12.515 68.3557 12.645 67.9657 12.705C67.4357 12.795 66.9357 12.725 66.4657 12.495C66.1557 12.345 66.0007 12.11 66.0007 11.79C66.0007 11.35 65.9607 10.665 65.8807 9.735C65.8107 8.795 65.7857 8.1 65.8057 7.65ZM69.5857 5.4C70.6557 5.39 71.4957 5.3 72.1057 5.13C72.7857 4.95 73.0957 4.565 73.0357 3.975C72.9957 3.455 72.6557 3.135 72.0157 3.015C71.9857 3.005 71.7857 2.985 71.4157 2.955C70.7957 2.895 69.8807 2.945 68.6707 3.105C68.2907 3.165 68.0207 3.285 67.8607 3.465C67.7007 3.635 67.6257 3.895 67.6357 4.245C67.6457 4.625 67.7357 4.905 67.9057 5.085C68.0857 5.265 68.3757 5.37 68.7757 5.4C68.8157 5.4 69.0857 5.4 69.5857 5.4Z" fill="var(--fill-0, black)"/>
<path d="M82.406 10.29C82.946 11.19 83.081 11.89 82.811 12.39C82.541 12.89 81.876 13.175 80.816 13.245C80.216 13.275 79.561 13.11 78.851 12.75C78.391 12.51 78.141 12.125 78.101 11.595C78.101 11.565 78.101 11.26 78.101 10.68C78.181 9.98 78.241 8.8 78.281 7.14C78.331 5.48 78.436 4.21 78.596 3.33C78.636 3.11 78.661 2.79 78.671 2.37C78.681 1.95 78.691 1.69 78.701 1.59C78.761 0.85 79.236 0.475 80.126 0.465C80.536 0.455 80.861 0.55 81.101 0.75C81.351 0.95 81.486 1.23 81.506 1.59C81.516 1.81 81.591 2.81 81.731 4.59C81.871 6.36 81.936 7.71 81.926 8.64C81.916 9.2 82.076 9.75 82.406 10.29Z" fill="var(--fill-0, black)"/>
<path d="M92.5991 9.615C92.7991 10.265 92.7891 11.105 92.5691 12.135C92.4591 12.635 92.1441 12.945 91.6241 13.065C90.9541 13.225 90.2841 13.155 89.6141 12.855C88.6941 12.435 87.8391 12.36 87.0491 12.63C86.7391 12.74 86.2641 12.755 85.6241 12.675C85.1041 12.615 84.6441 12.425 84.2441 12.105C83.8541 11.775 83.6091 11.4 83.5091 10.98C83.3791 10.4 83.4141 9.865 83.6141 9.375C83.8241 8.875 84.1791 8.47 84.6791 8.16C85.2691 7.81 86.0691 7.52 87.0791 7.29C87.5891 7.17 88.0741 6.93 88.5341 6.57C88.8341 6.34 88.8091 6.14 88.4591 5.97C87.8491 5.66 87.3291 5.625 86.8991 5.865C86.8991 5.875 86.5641 6.045 85.8941 6.375C85.4841 6.575 85.0541 6.61 84.6041 6.48C84.2741 6.4 84.0741 6.27 84.0041 6.09C83.9341 5.9 83.9741 5.65 84.1241 5.34C84.4741 4.65 85.1391 4.155 86.1191 3.855C87.6991 3.385 89.2891 3.55 90.8891 4.35C92.0291 4.92 92.5841 5.86 92.5541 7.17C92.5541 7.19 92.5541 7.46 92.5541 7.98C92.4541 8.67 92.4691 9.215 92.5991 9.615ZM88.4291 9.84C88.4291 9.82 88.4341 9.8 88.4441 9.78C88.4941 9.64 88.5291 9.53 88.5491 9.45C88.5691 9.37 88.5641 9.275 88.5341 9.165C88.5041 9.055 88.4391 8.97 88.3391 8.91C87.9691 8.68 87.5141 8.71 86.9741 9C86.6941 9.15 86.4841 9.315 86.3441 9.495C86.1141 9.815 86.1491 10.12 86.4491 10.41C86.6291 10.57 86.9141 10.65 87.3041 10.65C87.6241 10.65 87.8641 10.595 88.0241 10.485C88.1841 10.365 88.3191 10.15 88.4291 9.84Z" fill="var(--fill-0, black)"/>
<path d="M102.331 3.945C102.891 4.175 103.251 4.505 103.411 4.935C103.581 5.365 103.531 5.85 103.261 6.39C103.201 6.51 103.141 6.64 103.081 6.78C103.031 6.92 102.986 7.04 102.946 7.14C102.916 7.24 102.876 7.38 102.826 7.56C102.786 7.74 102.756 7.865 102.736 7.935C102.726 8.005 102.696 8.145 102.646 8.355C102.596 8.565 102.566 8.695 102.556 8.745C102.436 9.285 102.191 10.03 101.821 10.98C101.461 11.93 101.226 12.605 101.116 13.005C100.896 13.755 100.291 14.315 99.3009 14.685C98.5809 14.955 97.6409 15.125 96.4809 15.195C95.4809 15.115 94.9359 15.065 94.8459 15.045C94.2959 14.955 93.9759 14.695 93.8859 14.265C93.7959 13.795 93.9959 13.435 94.4859 13.185C94.7259 13.055 94.8959 12.955 94.9959 12.885C95.0959 12.815 95.1809 12.715 95.2509 12.585C95.3209 12.445 95.3459 12.29 95.3259 12.12C95.3159 11.94 95.2809 11.685 95.2209 11.355C94.8509 9.555 94.1859 7.435 93.2259 4.995C93.0159 4.475 92.9859 4.11 93.1359 3.9C93.2959 3.68 93.6609 3.575 94.2309 3.585C94.6509 3.595 94.9809 3.69 95.2209 3.87C95.4609 4.05 95.6509 4.35 95.7909 4.77C96.0409 5.44 96.2309 5.955 96.3609 6.315C96.5409 6.785 96.8009 7.02 97.1409 7.02C97.4609 7.02 97.7509 6.81 98.0109 6.39C98.1509 6.15 98.3459 5.675 98.5959 4.965C98.7959 4.385 99.0159 4.01 99.2559 3.84C99.4959 3.67 99.9209 3.585 100.531 3.585C101.141 3.585 101.741 3.705 102.331 3.945Z" fill="var(--fill-0, black)"/>
<path d="M107.976 9.39C107.766 9.49 107.661 9.61 107.661 9.75C107.661 9.8 107.666 9.845 107.676 9.885C107.696 9.915 107.721 9.945 107.751 9.975C107.791 9.995 107.821 10.01 107.841 10.02C107.871 10.03 107.916 10.045 107.976 10.065C108.036 10.075 108.076 10.08 108.096 10.08C108.686 10.26 109.391 10.215 110.211 9.945C111.041 9.665 111.816 9.785 112.536 10.305C112.816 10.515 112.961 10.7 112.971 10.86C112.991 11.02 112.871 11.215 112.611 11.445C111.861 12.145 110.906 12.55 109.746 12.66C109.716 12.66 109.441 12.66 108.921 12.66C106.891 12.73 105.431 11.81 104.541 9.9C103.631 7.92 103.831 6.09 105.141 4.41C105.671 3.75 106.376 3.365 107.256 3.255C107.996 3.165 108.701 3.18 109.371 3.3C110.051 3.41 110.681 3.63 111.261 3.96C111.841 4.29 112.331 4.77 112.731 5.4C113.141 6.03 113.416 6.775 113.556 7.635C113.616 8.005 113.581 8.29 113.451 8.49C113.321 8.68 113.076 8.815 112.716 8.895C112.346 8.965 111.871 8.965 111.291 8.895C110.521 8.795 109.576 8.895 108.456 9.195C108.366 9.215 108.206 9.28 107.976 9.39ZM107.646 6.75C107.626 6.95 107.671 7.115 107.781 7.245C107.891 7.365 108.046 7.48 108.246 7.59C108.546 7.73 108.881 7.745 109.251 7.635C109.621 7.525 109.881 7.33 110.031 7.05C110.181 6.78 110.126 6.58 109.866 6.45C109.556 6.3 109.136 6.19 108.606 6.12C108.396 6.12 108.186 6.185 107.976 6.315C107.776 6.445 107.666 6.59 107.646 6.75Z" fill="var(--fill-0, black)"/>
<path d="M121.99 3.21C122.37 3.62 122.495 4.165 122.365 4.845C122.335 5.025 122.18 5.135 121.9 5.175C121.47 5.235 121.12 5.395 120.85 5.655C120.59 5.915 120.355 6.27 120.145 6.72C119.605 7.86 119.275 9.205 119.155 10.755C119.115 11.345 118.99 11.73 118.78 11.91C118.57 12.08 118.135 12.16 117.475 12.15C117.435 12.14 117.325 12.13 117.145 12.12C116.965 12.1 116.84 12.085 116.77 12.075C116.71 12.065 116.6 12.05 116.44 12.03C116.28 12.01 116.155 11.985 116.065 11.955C115.975 11.925 115.865 11.885 115.735 11.835C115.605 11.785 115.485 11.73 115.375 11.67C115.265 11.6 115.16 11.525 115.06 11.445C114.34 10.835 114.06 10.18 114.22 9.48C114.34 8.95 114.445 8.185 114.535 7.185C114.635 6.175 114.725 5.455 114.805 5.025C114.845 4.795 114.9 4.6 114.97 4.44C115.19 3.87 115.54 3.49 116.02 3.3C116.51 3.11 117.01 3.165 117.52 3.465C117.94 3.715 118.325 3.83 118.675 3.81C119.035 3.78 119.385 3.6 119.725 3.27C119.895 3.11 120.16 2.955 120.52 2.805C121.04 2.595 121.53 2.73 121.99 3.21Z" fill="var(--fill-0, black)"/>
</g>
</g>
</svg>
